<?xml version="1.0" standalone="no"?>
<!DOCTYPE svg PUBLIC "-//W3C//DTD SVG 1.1//EN" "http://www.w3.org/Graphics/SVG/1.1/DTD/svg11.dtd" >
<svg xmlns="http://www.w3.org/2000/svg">
<metadata>
This is a custom SVG webfont generated by Font Squirrel.
Copyright   : Ryoichi Tsunekawa BagelCo All rights reserved
</metadata>
<defs>
<font id="BritishPaintsBebasRegular" horiz-adv-x="1060" >
<font-face units-per-em="2048" ascent="1638" descent="-410" />
<missing-glyph horiz-adv-x="503" />
<glyph unicode=" "  horiz-adv-x="503" />
<glyph unicode="&#x09;" horiz-adv-x="503" />
<glyph unicode="&#xa0;" horiz-adv-x="503" />
<glyph unicode="!" horiz-adv-x="464" d="M95 0v275h274v-275h-274zM95 804v1020h274v-1020l-20 -352h-234z" />
<glyph unicode="&#x22;" horiz-adv-x="769" d="M95 2112h254l-42 -416h-170zM420 2112h255l-42 -416h-170z" />
<glyph unicode="#" horiz-adv-x="1678" d="M95 432l42 276h273l58 347h-270l42 276h273l82 494h275l-82 -494h237l82 494h275l-82 -494h284l-42 -276h-287l-58 -347h284l-42 -276h-287l-71 -432h-275l71 432h-237l-71 -432h-275l71 432h-270zM687 708h235l57 347h-236z" />
<glyph unicode="$" horiz-adv-x="1099" d="M95 508l263 19q17 -163 83 -230q47 -51 107 -51h6q89 1 144 89q28 41 28 120q0 113 -102 226l-103 95l-143 136q-125 119 -183 221q-71 124 -71 272q0 140 67 258q83 144 242 183v118h233v-118q109 -23 183 -93q128 -119 143 -313l-265 -48q-10 109 -64 176 q-35 44 -107 44q-76 0 -115 -67q-32 -54 -32 -134q0 -124 107 -256q20 -23 50 -52.5t71 -62.5l80 -68q32 -28 48 -44q51 -52 89.5 -102.5t66.5 -98.5q80 -141 83 -260v-19q0 -221 -133 -348q-84 -77 -205 -99v-128h-233v134q-163 41 -253 195q-73 129 -85 306z" />
<glyph unicode="%" horiz-adv-x="1454" d="M95 1153v521q0 95 66.5 162t161.5 67q93 0 161 -69q67 -67 67 -160v-521q0 -92 -68 -160q-67 -67 -160 -66q-95 0 -161.5 66.5t-66.5 159.5zM182 -31l931 1929h160l-930 -1929h-161zM236 1156q0 -35 24 -59t58.5 -24t58.5 24t24 59v521q0 35 -24 59t-58.5 24t-58.5 -24 t-24 -59v-521zM905 217v520q0 95 67 162t161.5 67t159.5 -69q67 -67 67 -160v-520q0 -95 -67 -160q-68 -65 -160 -66q-95 0 -161 66q-67 67 -67 160zM1046 220q0 -35 24 -59t59 -24t59 24t24 59v520q0 35 -24 59t-59 24t-59 -24t-24 -59v-520z" />
<glyph unicode="&#x26;" horiz-adv-x="1268" d="M95 422q0 140 68 294q10 22 77 133l36 57l37 55l-57 130l-34 77q-14 32 -21 51q-15 38 -25 71.5t-16 62.5q-13 65 -13 128q0 122 54 224q28 54 67.5 93t92.5 68q86 45 183 45q113 0 205.5 -55t142.5 -156q39 -81 39 -173q0 -166 -115 -312l-60 -78l-79 -103l-70 -96 q47 -96 97.5 -184.5t108.5 -171.5q67 154 105 331l249 -55q-65 -289 -178 -491q106 -97 185 -98v-254q-161 0 -330 145q-163 -172 -349 -172q-215 0 -329 178q-71 111 -71 256zM349 422q0 -74 34 -124q39 -57 112 -57q81 0 176 105q-112 145 -226 352l-52 -90 q-44 -100 -44 -186zM400 1482q0 -83 84 -282l35 44l37 48l58 77q64 86 64 157q0 55 -15 83q-38 92 -119 91q-70 0 -112 -77q-32 -60 -32 -141z" />
<glyph unicode="'" horiz-adv-x="443" d="M95 2112h254l-42 -416h-170z" />
<glyph unicode="(" horiz-adv-x="734" d="M95 999q0 278 114 584l32 78q17 41 37 83q83 180 185 330l173 -81q-80 -166 -140 -333q-96 -268 -127 -492q-6 -44 -8.5 -86t-2.5 -83q0 -268 141 -685q32 -92 67 -181t74 -177l-177 -90q-51 84 -97.5 173.5t-87.5 185.5q-183 425 -183 774z" />
<glyph unicode=")" horiz-adv-x="733" d="M95 -44q41 89 75.5 178t65.5 179q48 141 80.5 269t48.5 246q7 45 9.5 87t2.5 83q0 272 -140 660q-31 86 -65 168l-73 165l173 82q51 -76 96 -157.5t87 -172.5q183 -400 184 -745q0 -349 -184 -774q-81 -191 -183 -358z" />
<glyph unicode="*" horiz-adv-x="910" d="M95 1478l75 219l199 -97l-32 225h232l-32 -228l208 100l71 -219l-223 -39l152 -158l-189 -139l-105 199l-106 -199l-192 139l161 160z" />
<glyph unicode="+" horiz-adv-x="1125" d="M95 790v203h366v367h204v-367h366v-203h-366v-367h-204v367h-366z" />
<glyph unicode="," horiz-adv-x="465" d="M95 0v273h276v-273l-100 -209h-117l66 209h-125z" />
<glyph unicode="-" horiz-adv-x="1003" d="M95 772v277h814v-277h-814z" />
<glyph unicode="." horiz-adv-x="464" d="M95 -1v274h274v-274h-274z" />
<glyph unicode="/" horiz-adv-x="1173" d="M95 -55l760 1994h224l-760 -1994h-224z" />
<glyph unicode="0" d="M95 416v995q0 182 128 308q128 128 308 128q182 0 308 -128q127 -129 127 -308v-995q0 -182 -128 -308q-129 -127 -307 -127q-183 0 -309.5 126.5t-126.5 308.5zM365 420q0 -33 12.5 -61.5t33.5 -50t49.5 -34t61.5 -12.5q32 0 61 12.5t51 34t34.5 50t12.5 61.5v997 q0 32 -12.5 61t-34.5 51t-51 34t-61 12q-33 0 -61.5 -12t-49.5 -34t-33.5 -51t-12.5 -61v-997z" />
<glyph unicode="1" horiz-adv-x="698" d="M95 1404v192q97 10 187 74t130 154h192v-1824h-277v1404h-232z" />
<glyph unicode="2" horiz-adv-x="1085" d="M95 1v252q0 9 61 100l62 94l71 103l80 111l117 164q64 89 110.5 168.5t78.5 152.5q51 119 51 220q0 81 -47 141q-51 61 -131 61q-115 0 -163 -132q-16 -45 -16 -105v-70h-270v48q0 257 140 396q121 121 317 120q180 0 307 -135q128 -134 128 -315q0 -188 -83 -360 q-23 -48 -75.5 -130t-135.5 -200l-56 -81l-78 -118l-50 -74q-47 -71 -72 -115q-12 -20 -12 -25l540 -1v-270h-874z" />
<glyph unicode="3" horiz-adv-x="1080" d="M95 416v45l261 20l6 -64q7 -70 48.5 -112.5t111.5 -42.5q189 0 189 176v107q0 281 -294 281v236q159 0 235 89q70 80 69 224v42q0 179 -157 179q-87 0 -128 -67q-31 -51 -30 -133v-48h-269v43q0 193 99 317q111 140 315 139q193 0 310 -131q105 -118 105 -293v-78 q0 -170 -102 -293q-44 -52 -102 -89q121 -67 189 -208q35 -73 35 -173v-144q0 -202 -138 -332q-134 -125 -319 -125q-182 0 -308 128t-126 307z" />
<glyph unicode="4" horiz-adv-x="1125" d="M95 394v277l485 1154h275v-1154h176v-277h-176v-393h-275v393h-485zM353 671h227v568z" />
<glyph unicode="5" horiz-adv-x="1040" d="M95 416v44l263 20l6 -63q10 -109 88 -145q26 -12 50 -12q169 0 169 176v447q0 80 -59 132q-29 25 -77 25q-73 0 -107 -57q-29 -51 -29 -104v-50h-277v996h805v-276h-528v-391q42 60 114 90q36 16 92 16q180 0 266 -127q74 -109 74 -308v-393q0 -204 -128 -331 q-122 -125 -308 -125q-180 0 -300 131q-114 123 -114 305z" />
<glyph unicode="6" horiz-adv-x="1018" d="M95 416v995q0 67 16.5 128t48 113.5t78 93t105.5 66.5q76 35 166 35q179 0 300 -131q115 -124 115 -305v-39h-287v45q0 67 -35.5 112.5t-101 45.5t-101 -45.5t-35.5 -112.5v-364q93 84 208 84q182 0 272 -126q80 -111 80 -307v-313h-2q-9 -175 -126 -292 q-116 -118 -287 -118q-182 0 -300 130q-114 123 -114 305zM365 420q0 -65 34 -110q36 -48 101 -48q64 0 102 48q35 44 35 110v338q0 79 -58 131q-29 25 -77 24q-71 0 -108 -56q-29 -47 -29 -104v-333z" />
<glyph unicode="7" horiz-adv-x="1015" d="M95 1549v276h826v-276l-386 -1548h-269l386 1548h-557z" />
<glyph unicode="8" horiz-adv-x="1082" d="M95 416v166q0 167 112 292q47 52 112 89q-111 57 -172 189q-31 67 -31 172v99q0 177 105 293q115 131 308 131h22q193 0 310 -131q105 -118 105 -293v-99q0 -172 -102 -283q-47 -51 -100 -78q121 -67 189 -208q35 -73 35 -173v-166q0 -182 -128 -308q-129 -127 -309 -127 h-22q-182 0 -308 128t-126 307zM361 1348q4 -118 38 -171q44 -70 142 -70q97 0 144 74q36 63 37 160q0 4 -1 7q-3 188 -117 236q-28 12 -63 12q-71 0 -116 -40q-36 -32 -52 -82q-13 -42 -13 -102q1 -12 1 -24zM369 458q0 -90 56 -145q48 -48 116 -50q112 7 156 111 q16 36 16 84v87q0 163 -74 219q-35 26 -98 26q-109 0 -148 -93q-23 -55 -24 -152v-87z" />
<glyph unicode="9" horiz-adv-x="1018" d="M95 1124v313h1q6 128 72 228.5t180 149.5q73 32 161 32q179 0 300 -131q115 -124 115 -305v-995q0 -183 -120 -308q-118 -127 -295 -127q-182 0 -300 130q-115 124 -114 305v39h285v-45q0 -67 35.5 -112t101 -45t101 45t35.5 112v365q-97 -86 -208 -86q-182 0 -270 127 q-80 110 -80 308zM380 1071q0 -80 58 -133q28 -25 77 -25q105 0 131 111q7 36 7 51v333q0 67 -35.5 113t-101 46t-101 -46t-35.5 -113v-337z" />
<glyph unicode=":" horiz-adv-x="465" d="M95 0v273h276v-273h-276zM95 772v275h276v-275h-276z" />
<glyph unicode=";" horiz-adv-x="464" d="M95 -1v274h274v-274l-98 -210h-117l64 210h-123zM95 772v275h274v-275h-274z" />
<glyph unicode="&#x3c;" horiz-adv-x="1101" d="M95 799v199l912 390v-232l-627 -259l627 -263v-230z" />
<glyph unicode="=" horiz-adv-x="1125" d="M95 636v203h936v-203h-936zM95 1034v204h936v-204h-936z" />
<glyph unicode="&#x3e;" horiz-adv-x="1101" d="M95 404v230l626 261l-626 261v232l912 -395v-199z" />
<glyph unicode="?" horiz-adv-x="1057" d="M95 1428q16 172 113 287q68 79 186 113q61 19 144 19q221 0 335 -158q90 -125 90 -294q0 -282 -255 -537q-87 -87 -94 -206l-2 -41.5t-1 -46.5v-109h-276v109q0 257 126 383q137 135 188 278q29 84 29 174q0 93 -42 149q-38 53 -108 52q-13 0 -28 -1q-83 -10 -119 -115 q-16 -44 -22 -102zM335 -13v276h276v-276h-276z" />
<glyph unicode="@" horiz-adv-x="2048" d="M95 851q0 454 258.5 765t719.5 311q279 0 451 -106q409 -252 409 -768q0 -294 -163 -532q-186 -271 -465 -271q-148 0 -195 121q-65 -61 -121 -89q-63 -32 -150 -32q-205 0 -315 166q-96 141 -96 359q0 273 128 504q153 276 404 276q159 0 262 -135l14 97h275l-158 -1002 q0 -25 22 -25q84 0 171 92q64 68 111 166q60 131 59 305q0 291 -174 473q-173 182 -464 182q-335 0 -551 -230q-215 -228 -216 -615q0 -355 197 -575q205 -231 554 -231q319 0 586 216l6 6h299l-27 -35q-153 -192 -386 -301q-227 -105 -477 -104q-413 0 -690.5 277.5 t-277.5 734.5zM716 708q0 -92 32 -157q41 -87 122 -87q96 0 155 103q16 29 33.5 76.5t35.5 112.5q49 183 49 354q0 84 -30 144q-38 74 -117 74q-150 0 -225 -250q-55 -179 -55 -370z" />
<glyph unicode="A" horiz-adv-x="1182" d="M95 0l309 1823h379l305 -1823h-288l-65 419h-287l-67 -419h-286zM490 687h204l-102 718z" />
<glyph unicode="B" horiz-adv-x="1115" d="M95 0v1824h411q161 0 294 -86q112 -73 160 -225q26 -81 26 -194q0 -183 -97 -294q-44 -48 -96 -71q92 -35 155 -138q20 -35 36.5 -80t26.5 -100q6 -29 8 -60.5t2 -66.5q0 -175 -65 -294q-51 -95 -144 -151q-106 -64 -208 -64h-509zM391 272h115q138 0 194 144 q19 48 19 113q0 154 -59 223q-52 64 -154 64h-115v-544zM391 1079h115q128 0 172 125q16 48 16 115q0 112 -55 172q-49 54 -133 54h-115v-466z" />
<glyph unicode="C" d="M95 412v995q0 182 128 308q128 128 308 128q182 0 308 -128q127 -129 127 -308v-208h-285v213q0 32 -12.5 61.5t-34.5 51t-51 34t-61 12.5q-33 0 -61.5 -12.5t-49.5 -34t-33.5 -51t-12.5 -61.5v-997q0 -33 12.5 -62t33.5 -50t49.5 -33.5t61.5 -12.5q32 0 61 12.5t51 33.5 t34.5 49.5t12.5 62.5v251h285v-254q0 -182 -128 -309q-129 -127 -307 -126q-183 0 -309.5 126.5t-126.5 308.5z" />
<glyph unicode="D" horiz-adv-x="1053" d="M95 0v1824h432q182 0 305 -128q127 -129 127 -307v-953q0 -180 -127 -308t-305 -128h-432zM369 272h166q64 0 111 47q45 47 45 112v954q0 65 -46.5 111.5t-109.5 46.5h-166v-1271z" />
<glyph unicode="E" horiz-adv-x="971" d="M95 0v1824h782v-275h-508v-499h371v-276h-371v-499h508v-275h-782z" />
<glyph unicode="F" horiz-adv-x="971" d="M95 0v1824h782v-275h-508v-499h371v-276h-371v-774h-274z" />
<glyph unicode="G" d="M95 412v995q0 182 128 308q128 128 308 128q182 0 308 -128q127 -129 127 -308v-208h-285v213q0 32 -12.5 61.5t-34.5 51t-51 34t-61 12.5q-33 0 -61.5 -12.5t-49.5 -34t-33.5 -51t-12.5 -61.5v-997q0 -33 12.5 -62t33.5 -50t49.5 -33.5t61.5 -12.5q32 0 61 12.5t51 33.5 t34.5 49.5t12.5 62.5v359h-153v275h438v-637q0 -182 -128 -309q-129 -127 -307 -126q-182 0 -310 128q-126 128 -126 307z" />
<glyph unicode="H" horiz-adv-x="1070" d="M95 0v1823h276v-774h329v774h276v-1823h-276v772h-329v-772h-276z" />
<glyph unicode="I" horiz-adv-x="464" d="M95 0v1823h274v-1823h-274z" />
<glyph unicode="J" horiz-adv-x="794" d="M95 1l39 256q45 -9 80 -8q10 -1 24.5 -0.5t33.5 1.5q67 4 113 48t46 109v1413h269v-1407q0 -182 -128 -308q-128 -125 -307 -125q-105 -1 -170 21z" />
<glyph unicode="K" horiz-adv-x="1157" d="M95 0v1824h276v-650l334 650h294l-376 -746l440 -1078h-323l-288 739l-81 -163v-576h-276z" />
<glyph unicode="L" horiz-adv-x="938" d="M95 0v1823h274v-1550h475v-273h-749z" />
<glyph unicode="M" horiz-adv-x="1464" d="M95 0v1824h394l256 -1308l246 1308h379v-1824h-275v1146l-238 -1146h-221l-267 1143v-1143h-274z" />
<glyph unicode="N" horiz-adv-x="1137" d="M95 0v1824h309l364 -1225v1225h275v-1824h-295l-379 1168v-1168h-274z" />
<glyph unicode="O" d="M95 415v994q0 182 128 309q128 128 306 128q182 0 309 -128q128 -128 128 -309v-994q0 -182 -128 -310q-129 -127 -309 -127q-182 0 -308 128.5t-126 308.5zM364 417q0 -33 12 -61.5t34 -49.5t50.5 -33.5t61.5 -12.5q32 0 61 12.5t50.5 33.5t33.5 49.5t12 61.5v998 q0 32 -12 61t-33.5 50.5t-50.5 33.5t-61 12q-33 0 -61.5 -12t-50.5 -33.5t-34 -50.5t-12 -61v-998z" />
<glyph unicode="P" horiz-adv-x="1053" d="M95 0v1823h433q199 0 320 -127q111 -119 111 -308v-265q0 -180 -127 -308q-124 -128 -304 -128h-159v-687h-274zM369 959h166q32 0 61 12t50.5 34t33.5 50.5t12 61.5v266q0 71 -42.5 115t-114.5 44h-166v-583z" />
<glyph unicode="Q" horiz-adv-x="1106" d="M95 415v994q0 182 128 309q128 128 308 128q182 0 308.5 -129.5t126.5 -307.5v-994q0 -119 -58 -219q38 -42 104 -42v-256q-205 0 -282 130q-90 -49 -199 -50q-182 0 -310 128q-126 129 -126 309zM365 417q0 -33 12.5 -61.5t33.5 -49.5t49.5 -33.5t61.5 -12.5 q32 0 61 12.5t51 33.5t34.5 49.5t12.5 61.5v998q0 32 -12.5 61t-34.5 50.5t-51 33.5t-61 12q-33 0 -61.5 -12t-49.5 -33.5t-33.5 -50.5t-12.5 -61v-998z" />
<glyph unicode="R" horiz-adv-x="1111" d="M95 0v1823h433q230 0 337 -127q95 -112 95 -308v-265q0 -193 -147 -327l204 -796h-297l-167 688q-6 -1 -12 -1h-13h-159v-687h-274zM369 959h166q32 0 61 12t50.5 34t33.5 50.5t12 61.5v266q0 159 -157 159h-166v-583z" />
<glyph unicode="S" horiz-adv-x="1098" d="M95 495l261 18q17 -159 85 -229q47 -51 107 -51h6q89 1 144 88q28 41 28 121q0 57 -24 115t-79 111l-245 231q-70 65 -117 125t-76 112q-61 118 -61 256q0 249 167 377q103 77 256 77q147 0 252 -66q83 -51 132 -142.5t60 -210.5l-264 -48q-10 111 -64 174 q-36 45 -109 46q-76 0 -115 -67q-32 -54 -32 -134q0 -125 108 -255q20 -25 50.5 -54t71.5 -62l79 -68l48 -44q102 -103 157 -201q28 -48 42 -86q38 -96 41 -174v-11q0 -185 -99 -315q-68 -93 -189 -129q-68 -20 -153 -21q-161 0 -268 80q-89 65 -140 178.5t-60 258.5z" />
<glyph unicode="T" horiz-adv-x="1047" d="M95 1548v275h858v-275h-291v-1548h-275v1548h-292z" />
<glyph unicode="U" d="M95 413v1410h269v-1407q0 -33 12 -61.5t34 -49.5t50.5 -33.5t61.5 -12.5q32 0 61 12.5t50.5 33.5t33.5 49.5t12 61.5v1407h287v-1410q0 -185 -128 -308q-129 -125 -309 -125q-182 0 -308 126.5t-126 306.5z" />
<glyph unicode="V" horiz-adv-x="1224" d="M95 1823h288l228 -1419l231 1419h288l-331 -1823h-379z" />
<glyph unicode="W" horiz-adv-x="1607" d="M95 1823h288l144 -976l132 976h288l144 -976l134 976h288l-285 -1823h-264l-155 995l-146 -995h-263z" />
<glyph unicode="X" horiz-adv-x="1202" d="M95 0l357 916l-357 907h304l203 -563l202 563h304l-357 -907l357 -916h-295l-211 579l-212 -579h-295z" />
<glyph unicode="Y" horiz-adv-x="1201" d="M95 1824h302l204 -655l202 655h304l-370 -1060v-764h-274v764z" />
<glyph unicode="Z" horiz-adv-x="992" d="M95 0v273l507 1275h-507v275h802v-275l-506 -1275h506v-273h-802z" />
<glyph unicode="[" horiz-adv-x="651" d="M95 -1v1938h462v-276h-186v-1389h186v-273h-462z" />
<glyph unicode="\" horiz-adv-x="1173" d="M95 1937h222l762 -1992h-224z" />
<glyph unicode="]" horiz-adv-x="650" d="M95 -1v274h186v1390h-186v276h461v-1940h-461z" />
<glyph unicode="^" horiz-adv-x="776" d="M95 1601l226 511h134l227 -511h-189l-103 249l-103 -249h-192z" />
<glyph unicode="_" horiz-adv-x="1595" d="M95 -103h1406v-202h-1406v202z" />
<glyph unicode="`" horiz-adv-x="592" d="M95 2060h254l148 -418h-170z" />
<glyph unicode="a" horiz-adv-x="1182" d="M95 0l309 1823h379l305 -1823h-288l-65 419h-287l-67 -419h-286zM490 687h204l-102 718z" />
<glyph unicode="b" horiz-adv-x="1115" d="M95 0v1824h411q161 0 294 -86q112 -73 160 -225q26 -81 26 -194q0 -183 -97 -294q-44 -48 -96 -71q92 -35 155 -138q20 -35 36.5 -80t26.5 -100q6 -29 8 -60.5t2 -66.5q0 -175 -65 -294q-51 -95 -144 -151q-106 -64 -208 -64h-509zM391 272h115q138 0 194 144 q19 48 19 113q0 154 -59 223q-52 64 -154 64h-115v-544zM391 1079h115q128 0 172 125q16 48 16 115q0 112 -55 172q-49 54 -133 54h-115v-466z" />
<glyph unicode="c" d="M95 412v995q0 182 128 308q128 128 308 128q182 0 308 -128q127 -129 127 -308v-208h-285v213q0 32 -12.5 61.5t-34.5 51t-51 34t-61 12.5q-33 0 -61.5 -12.5t-49.5 -34t-33.5 -51t-12.5 -61.5v-997q0 -33 12.5 -62t33.5 -50t49.5 -33.5t61.5 -12.5q32 0 61 12.5t51 33.5 t34.5 49.5t12.5 62.5v251h285v-254q0 -182 -128 -309q-129 -127 -307 -126q-183 0 -309.5 126.5t-126.5 308.5z" />
<glyph unicode="d" horiz-adv-x="1053" d="M95 0v1824h432q182 0 305 -128q127 -129 127 -307v-953q0 -180 -127 -308t-305 -128h-432zM369 272h166q64 0 111 47q45 47 45 112v954q0 65 -46.5 111.5t-109.5 46.5h-166v-1271z" />
<glyph unicode="e" horiz-adv-x="971" d="M95 0v1824h782v-275h-508v-499h371v-276h-371v-499h508v-275h-782z" />
<glyph unicode="f" horiz-adv-x="971" d="M95 0v1824h782v-275h-508v-499h371v-276h-371v-774h-274z" />
<glyph unicode="g" d="M95 412v995q0 182 128 308q128 128 308 128q182 0 308 -128q127 -129 127 -308v-208h-285v213q0 32 -12.5 61.5t-34.5 51t-51 34t-61 12.5q-33 0 -61.5 -12.5t-49.5 -34t-33.5 -51t-12.5 -61.5v-997q0 -33 12.5 -62t33.5 -50t49.5 -33.5t61.5 -12.5q32 0 61 12.5t51 33.5 t34.5 49.5t12.5 62.5v359h-153v275h438v-637q0 -182 -128 -309q-129 -127 -307 -126q-182 0 -310 128q-126 128 -126 307z" />
<glyph unicode="h" horiz-adv-x="1070" d="M95 0v1823h276v-774h329v774h276v-1823h-276v772h-329v-772h-276z" />
<glyph unicode="i" horiz-adv-x="464" d="M95 0v1823h274v-1823h-274z" />
<glyph unicode="j" horiz-adv-x="794" d="M95 1l39 256q45 -9 80 -8q10 -1 24.5 -0.5t33.5 1.5q67 4 113 48t46 109v1413h269v-1407q0 -182 -128 -308q-128 -125 -307 -125q-105 -1 -170 21z" />
<glyph unicode="k" horiz-adv-x="1157" d="M95 0v1824h276v-650l334 650h294l-376 -746l440 -1078h-323l-288 739l-81 -163v-576h-276z" />
<glyph unicode="l" horiz-adv-x="938" d="M95 0v1823h274v-1550h475v-273h-749z" />
<glyph unicode="m" horiz-adv-x="1464" d="M95 0v1824h394l256 -1308l246 1308h379v-1824h-275v1146l-238 -1146h-221l-267 1143v-1143h-274z" />
<glyph unicode="n" horiz-adv-x="1137" d="M95 0v1824h309l364 -1225v1225h275v-1824h-295l-379 1168v-1168h-274z" />
<glyph unicode="o" d="M95 415v994q0 182 128 309q128 128 306 128q182 0 309 -128q128 -128 128 -309v-994q0 -182 -128 -310q-129 -127 -309 -127q-182 0 -308 128.5t-126 308.5zM364 417q0 -33 12 -61.5t34 -49.5t50.5 -33.5t61.5 -12.5q32 0 61 12.5t50.5 33.5t33.5 49.5t12 61.5v998 q0 32 -12 61t-33.5 50.5t-50.5 33.5t-61 12q-33 0 -61.5 -12t-50.5 -33.5t-34 -50.5t-12 -61v-998z" />
<glyph unicode="p" horiz-adv-x="1053" d="M95 0v1823h433q199 0 320 -127q111 -119 111 -308v-265q0 -180 -127 -308q-124 -128 -304 -128h-159v-687h-274zM369 959h166q32 0 61 12t50.5 34t33.5 50.5t12 61.5v266q0 71 -42.5 115t-114.5 44h-166v-583z" />
<glyph unicode="q" horiz-adv-x="1106" d="M95 415v994q0 182 128 309q128 128 308 128q182 0 308.5 -129.5t126.5 -307.5v-994q0 -119 -58 -219q38 -42 104 -42v-256q-205 0 -282 130q-90 -49 -199 -50q-182 0 -310 128q-126 129 -126 309zM365 417q0 -33 12.5 -61.5t33.5 -49.5t49.5 -33.5t61.5 -12.5 q32 0 61 12.5t51 33.5t34.5 49.5t12.5 61.5v998q0 32 -12.5 61t-34.5 50.5t-51 33.5t-61 12q-33 0 -61.5 -12t-49.5 -33.5t-33.5 -50.5t-12.5 -61v-998z" />
<glyph unicode="r" horiz-adv-x="1111" d="M95 0v1823h433q230 0 337 -127q95 -112 95 -308v-265q0 -193 -147 -327l204 -796h-297l-167 688q-6 -1 -12 -1h-13h-159v-687h-274zM369 959h166q32 0 61 12t50.5 34t33.5 50.5t12 61.5v266q0 159 -157 159h-166v-583z" />
<glyph unicode="s" horiz-adv-x="1098" d="M95 495l261 18q17 -159 85 -229q47 -51 107 -51h6q89 1 144 88q28 41 28 121q0 57 -24 115t-79 111l-245 231q-70 65 -117 125t-76 112q-61 118 -61 256q0 249 167 377q103 77 256 77q147 0 252 -66q83 -51 132 -142.5t60 -210.5l-264 -48q-10 111 -64 174 q-36 45 -109 46q-76 0 -115 -67q-32 -54 -32 -134q0 -125 108 -255q20 -25 50.5 -54t71.5 -62l79 -68l48 -44q102 -103 157 -201q28 -48 42 -86q38 -96 41 -174v-11q0 -185 -99 -315q-68 -93 -189 -129q-68 -20 -153 -21q-161 0 -268 80q-89 65 -140 178.5t-60 258.5z" />
<glyph unicode="t" horiz-adv-x="1047" d="M95 1548v275h858v-275h-291v-1548h-275v1548h-292z" />
<glyph unicode="u" d="M95 413v1410h269v-1407q0 -33 12 -61.5t34 -49.5t50.5 -33.5t61.5 -12.5q32 0 61 12.5t50.5 33.5t33.5 49.5t12 61.5v1407h287v-1410q0 -185 -128 -308q-129 -125 -309 -125q-182 0 -308 126.5t-126 306.5z" />
<glyph unicode="v" horiz-adv-x="1224" d="M95 1823h288l228 -1419l231 1419h288l-331 -1823h-379z" />
<glyph unicode="w" horiz-adv-x="1607" d="M95 1823h288l144 -976l132 976h288l144 -976l134 976h288l-285 -1823h-264l-155 995l-146 -995h-263z" />
<glyph unicode="x" horiz-adv-x="1202" d="M95 0l357 916l-357 907h304l203 -563l202 563h304l-357 -907l357 -916h-295l-211 579l-212 -579h-295z" />
<glyph unicode="y" horiz-adv-x="1201" d="M95 1824h302l204 -655l202 655h304l-370 -1060v-764h-274v764z" />
<glyph unicode="z" horiz-adv-x="992" d="M95 0v273l507 1275h-507v275h802v-275l-506 -1275h506v-273h-802z" />
<glyph unicode="{" horiz-adv-x="779" d="M95 902v141q100 9 130 92q13 35 14 186v282q0 202 106 282q102 77 340 77v-190q-127 0 -172 -35t-45 -143v-390q0 -71 -36 -135q-39 -73 -100 -96q55 -22 97 -92q39 -64 39 -139v-391q0 -111 45 -143q47 -33 172 -33v-191q-239 0 -340 77q-106 80 -106 282v281 q0 150 -14 188q-30 84 -130 90z" />
<glyph unicode="|" horiz-adv-x="450" d="M95 -150v2551h261v-2551h-261z" />
<glyph unicode="}" horiz-adv-x="779" d="M95 -28v189q127 0 171 34q45 32 45 142v392q0 65 38 136q38 70 99 95q-55 23 -97 92q-39 67 -40 139v392q0 111 -45 142q-45 33 -171 34v190q239 0 340 -77q108 -81 108 -282v-282v-76q0 -29 1 -41q4 -64 31 -109q26 -47 110 -52v-141q-31 -3 -52 -9t-35.5 -17t-24 -27 t-17.5 -37q-10 -26 -12 -70q-1 -12 -1 -41v-77v-281q0 -201 -108 -282q-97 -76 -340 -76z" />
<glyph unicode="~" horiz-adv-x="1079" d="M95 1981q117 156 257 156h10q33 -1 72 -11.5t81 -30.5l71 -39q35 -20 70 -37q16 -9 31.5 -12t29.5 -3q52 3 115 86l153 -113q-121 -160 -265 -160h-10q-86 3 -221 77q-97 54 -133 54q-48 0 -109 -80z" />
<glyph unicode="&#xaa;" horiz-adv-x="1182" d="M95 0l309 1823h379l305 -1823h-288l-65 419h-287l-67 -419h-286zM490 687h204l-102 718z" />
<glyph unicode="&#xad;" horiz-adv-x="1003" d="M95 772v277h814v-277h-814z" />
<glyph unicode="&#xb2;" horiz-adv-x="1085" d="M95 1v252q0 9 61 100l62 94l71 103l80 111l117 164q64 89 110.5 168.5t78.5 152.5q51 119 51 220q0 81 -47 141q-51 61 -131 61q-115 0 -163 -132q-16 -45 -16 -105v-70h-270v48q0 257 140 396q121 121 317 120q180 0 307 -135q128 -134 128 -315q0 -188 -83 -360 q-23 -48 -75.5 -130t-135.5 -200l-56 -81l-78 -118l-50 -74q-47 -71 -72 -115q-12 -20 -12 -25l540 -1v-270h-874z" />
<glyph unicode="&#xb3;" horiz-adv-x="1080" d="M95 416v45l261 20l6 -64q7 -70 48.5 -112.5t111.5 -42.5q189 0 189 176v107q0 281 -294 281v236q159 0 235 89q70 80 69 224v42q0 179 -157 179q-87 0 -128 -67q-31 -51 -30 -133v-48h-269v43q0 193 99 317q111 140 315 139q193 0 310 -131q105 -118 105 -293v-78 q0 -170 -102 -293q-44 -52 -102 -89q121 -67 189 -208q35 -73 35 -173v-144q0 -202 -138 -332q-134 -125 -319 -125q-182 0 -308 128t-126 307z" />
<glyph unicode="&#xb9;" horiz-adv-x="698" d="M95 1404v192q97 10 187 74t130 154h192v-1824h-277v1404h-232z" />
<glyph unicode="&#xba;" d="M95 415v994q0 182 128 309q128 128 306 128q182 0 309 -128q128 -128 128 -309v-994q0 -182 -128 -310q-129 -127 -309 -127q-182 0 -308 128.5t-126 308.5zM364 417q0 -33 12 -61.5t34 -49.5t50.5 -33.5t61.5 -12.5q32 0 61 12.5t50.5 33.5t33.5 49.5t12 61.5v998 q0 32 -12 61t-33.5 50.5t-50.5 33.5t-61 12q-33 0 -61.5 -12t-50.5 -33.5t-34 -50.5t-12 -61v-998z" />
<glyph unicode="&#xc0;" horiz-adv-x="1182" d="M95 0l309 1823h379l305 -1823h-288l-65 419h-287l-67 -419h-286zM275 2385h254l149 -417h-170zM490 687h204l-102 718z" />
<glyph unicode="&#xc2;" horiz-adv-x="1182" d="M95 0l309 1823h379l305 -1823h-288l-65 419h-287l-67 -419h-286zM300 1968l227 511h133l227 -511h-189l-103 249l-103 -249h-192zM490 687h204l-102 718z" />
<glyph unicode="&#xc3;" horiz-adv-x="1182" d="M95 0l309 1823h379l305 -1823h-288l-65 419h-287l-67 -419h-286zM148 2132q117 156 258 156h10q33 -1 72 -11.5t81 -30.5l71 -39q35 -20 70 -37q16 -9 31 -11.5t30 -2.5q52 3 115 85l153 -113q-121 -160 -265 -160h-10q-86 3 -221 77q-97 54 -133 54q-48 0 -109 -80z M490 687h204l-102 718z" />
<glyph unicode="&#xc8;" horiz-adv-x="971" d="M95 0v1824h782v-275h-508v-499h371v-276h-371v-499h508v-275h-782zM167 2385h255l148 -417h-170z" />
<glyph unicode="&#xca;" horiz-adv-x="971" d="M95 0v1824h782v-275h-508v-499h371v-276h-371v-499h508v-275h-782zM192 1968l227 511h134l227 -511h-189l-104 249l-103 -249h-192z" />
<glyph unicode="&#xcc;" horiz-adv-x="464" d="M-86 2385h255l148 -417h-170zM95 0v1823h274v-1823h-274z" />
<glyph unicode="&#xce;" horiz-adv-x="464" d="M-63 1968l227 511h134l227 -511h-189l-103 249l-104 -249h-192zM95 0v1823h274v-1823h-274z" />
<glyph unicode="&#xd1;" horiz-adv-x="1137" d="M95 0v1824h309l364 -1225v1225h275v-1824h-295l-379 1168v-1168h-274zM124 2132q117 156 257 156h10q33 -1 72 -11.5t81 -30.5l71 -39q35 -20 70 -37q16 -9 31.5 -11.5t29.5 -2.5q52 3 115 85l153 -113q-121 -160 -265 -160h-10q-86 3 -221 77q-97 54 -133 54 q-48 0 -109 -80z" />
<glyph unicode="&#xd2;" d="M95 415v994q0 182 128 309q128 128 306 128q182 0 309 -128q128 -128 128 -309v-994q0 -182 -128 -310q-129 -127 -309 -127q-182 0 -308 128.5t-126 308.5zM211 2385h254l149 -417h-170zM364 417q0 -33 12 -61.5t34 -49.5t50.5 -33.5t61.5 -12.5q32 0 61 12.5t50.5 33.5 t33.5 49.5t12 61.5v998q0 32 -12 61t-33.5 50.5t-50.5 33.5t-61 12q-33 0 -61.5 -12t-50.5 -33.5t-34 -50.5t-12 -61v-998z" />
<glyph unicode="&#xd4;" d="M95 415v994q0 182 128 309q128 128 306 128q182 0 309 -128q128 -128 128 -309v-994q0 -182 -128 -310q-129 -127 -309 -127q-182 0 -308 128.5t-126 308.5zM236 1968l227 511h133l227 -511h-189l-103 249l-103 -249h-192zM364 417q0 -33 12 -61.5t34 -49.5t50.5 -33.5 t61.5 -12.5q32 0 61 12.5t50.5 33.5t33.5 49.5t12 61.5v998q0 32 -12 61t-33.5 50.5t-50.5 33.5t-61 12q-33 0 -61.5 -12t-50.5 -33.5t-34 -50.5t-12 -61v-998z" />
<glyph unicode="&#xd5;" d="M84 2132q117 156 258 156h10q33 -1 72 -11.5t81 -30.5l71 -39q35 -20 70 -37q16 -9 31 -11.5t30 -2.5q52 3 115 85l153 -113q-121 -160 -265 -160h-10q-86 3 -221 77q-97 54 -133 54q-48 0 -109 -80zM95 415v994q0 182 128 309q128 128 306 128q182 0 309 -128 q128 -128 128 -309v-994q0 -182 -128 -310q-129 -127 -309 -127q-182 0 -308 128.5t-126 308.5zM364 417q0 -33 12 -61.5t34 -49.5t50.5 -33.5t61.5 -12.5q32 0 61 12.5t50.5 33.5t33.5 49.5t12 61.5v998q0 32 -12 61t-33.5 50.5t-50.5 33.5t-61 12q-33 0 -61.5 -12 t-50.5 -33.5t-34 -50.5t-12 -61v-998z" />
<glyph unicode="&#xd9;" d="M95 413v1410h269v-1407q0 -33 12 -61.5t34 -49.5t50.5 -33.5t61.5 -12.5q32 0 61 12.5t50.5 33.5t33.5 49.5t12 61.5v1407h287v-1410q0 -185 -128 -308q-129 -125 -309 -125q-182 0 -308 126.5t-126 306.5zM212 2385h255l148 -417h-170z" />
<glyph unicode="&#xdb;" d="M95 413v1410h269v-1407q0 -33 12 -61.5t34 -49.5t50.5 -33.5t61.5 -12.5q32 0 61 12.5t50.5 33.5t33.5 49.5t12 61.5v1407h287v-1410q0 -185 -128 -308q-129 -125 -309 -125q-182 0 -308 126.5t-126 306.5zM237 1968l227 511h134l227 -511h-189l-104 249l-103 -249h-192z " />
<glyph unicode="&#xe0;" horiz-adv-x="1182" d="M95 0l309 1823h379l305 -1823h-288l-65 419h-287l-67 -419h-286zM275 2385h254l149 -417h-170zM490 687h204l-102 718z" />
<glyph unicode="&#xe2;" horiz-adv-x="1182" d="M95 0l309 1823h379l305 -1823h-288l-65 419h-287l-67 -419h-286zM300 1968l227 511h133l227 -511h-189l-103 249l-103 -249h-192zM490 687h204l-102 718z" />
<glyph unicode="&#xe3;" horiz-adv-x="1182" d="M95 0l309 1823h379l305 -1823h-288l-65 419h-287l-67 -419h-286zM148 2132q117 156 258 156h10q33 -1 72 -11.5t81 -30.5l71 -39q35 -20 70 -37q16 -9 31 -11.5t30 -2.5q52 3 115 85l153 -113q-121 -160 -265 -160h-10q-86 3 -221 77q-97 54 -133 54q-48 0 -109 -80z M490 687h204l-102 718z" />
<glyph unicode="&#xe8;" horiz-adv-x="971" d="M95 0v1824h782v-275h-508v-499h371v-276h-371v-499h508v-275h-782zM167 2385h255l148 -417h-170z" />
<glyph unicode="&#xea;" horiz-adv-x="971" d="M95 0v1824h782v-275h-508v-499h371v-276h-371v-499h508v-275h-782zM192 1968l227 511h134l227 -511h-189l-104 249l-103 -249h-192z" />
<glyph unicode="&#xec;" horiz-adv-x="464" d="M-86 2385h255l148 -417h-170zM95 0v1823h274v-1823h-274z" />
<glyph unicode="&#xee;" horiz-adv-x="464" d="M-63 1968l227 511h134l227 -511h-189l-103 249l-104 -249h-192zM95 0v1823h274v-1823h-274z" />
<glyph unicode="&#xf1;" horiz-adv-x="1137" d="M95 0v1824h309l364 -1225v1225h275v-1824h-295l-379 1168v-1168h-274zM124 2132q117 156 257 156h10q33 -1 72 -11.5t81 -30.5l71 -39q35 -20 70 -37q16 -9 31.5 -11.5t29.5 -2.5q52 3 115 85l153 -113q-121 -160 -265 -160h-10q-86 3 -221 77q-97 54 -133 54 q-48 0 -109 -80z" />
<glyph unicode="&#xf2;" d="M95 415v994q0 182 128 309q128 128 306 128q182 0 309 -128q128 -128 128 -309v-994q0 -182 -128 -310q-129 -127 -309 -127q-182 0 -308 128.5t-126 308.5zM211 2385h254l149 -417h-170zM364 417q0 -33 12 -61.5t34 -49.5t50.5 -33.5t61.5 -12.5q32 0 61 12.5t50.5 33.5 t33.5 49.5t12 61.5v998q0 32 -12 61t-33.5 50.5t-50.5 33.5t-61 12q-33 0 -61.5 -12t-50.5 -33.5t-34 -50.5t-12 -61v-998z" />
<glyph unicode="&#xf4;" d="M95 415v994q0 182 128 309q128 128 306 128q182 0 309 -128q128 -128 128 -309v-994q0 -182 -128 -310q-129 -127 -309 -127q-182 0 -308 128.5t-126 308.5zM236 1968l227 511h133l227 -511h-189l-103 249l-103 -249h-192zM364 417q0 -33 12 -61.5t34 -49.5t50.5 -33.5 t61.5 -12.5q32 0 61 12.5t50.5 33.5t33.5 49.5t12 61.5v998q0 32 -12 61t-33.5 50.5t-50.5 33.5t-61 12q-33 0 -61.5 -12t-50.5 -33.5t-34 -50.5t-12 -61v-998z" />
<glyph unicode="&#xf5;" d="M84 2132q117 156 258 156h10q33 -1 72 -11.5t81 -30.5l71 -39q35 -20 70 -37q16 -9 31 -11.5t30 -2.5q52 3 115 85l153 -113q-121 -160 -265 -160h-10q-86 3 -221 77q-97 54 -133 54q-48 0 -109 -80zM95 415v994q0 182 128 309q128 128 306 128q182 0 309 -128 q128 -128 128 -309v-994q0 -182 -128 -310q-129 -127 -309 -127q-182 0 -308 128.5t-126 308.5zM364 417q0 -33 12 -61.5t34 -49.5t50.5 -33.5t61.5 -12.5q32 0 61 12.5t50.5 33.5t33.5 49.5t12 61.5v998q0 32 -12 61t-33.5 50.5t-50.5 33.5t-61 12q-33 0 -61.5 -12 t-50.5 -33.5t-34 -50.5t-12 -61v-998z" />
<glyph unicode="&#xf9;" d="M95 413v1410h269v-1407q0 -33 12 -61.5t34 -49.5t50.5 -33.5t61.5 -12.5q32 0 61 12.5t50.5 33.5t33.5 49.5t12 61.5v1407h287v-1410q0 -185 -128 -308q-129 -125 -309 -125q-182 0 -308 126.5t-126 306.5zM212 2385h255l148 -417h-170z" />
<glyph unicode="&#xfb;" d="M95 413v1410h269v-1407q0 -33 12 -61.5t34 -49.5t50.5 -33.5t61.5 -12.5q32 0 61 12.5t50.5 33.5t33.5 49.5t12 61.5v1407h287v-1410q0 -185 -128 -308q-129 -125 -309 -125q-182 0 -308 126.5t-126 306.5zM237 1968l227 511h134l227 -511h-189l-104 249l-103 -249h-192z " />
<glyph unicode="&#x152;" horiz-adv-x="2032" d="M95 415v994q0 182 128 309q128 128 306 128q182 0 309 -128q128 -128 128 -309v-994q0 -182 -128 -310q-129 -127 -309 -127q-182 0 -308 128.5t-126 308.5zM364 417q0 -33 12 -61.5t34 -49.5t50.5 -33.5t61.5 -12.5q32 0 61 12.5t50.5 33.5t33.5 49.5t12 61.5v998 q0 32 -12 61t-33.5 50.5t-50.5 33.5t-61 12q-33 0 -61.5 -12t-50.5 -33.5t-34 -50.5t-12 -61v-998zM1155 0v1824h782v-275h-507v-499h371v-276h-371v-499h507v-275h-782z" />
<glyph unicode="&#x153;" horiz-adv-x="2032" d="M95 415v994q0 182 128 309q128 128 306 128q182 0 309 -128q128 -128 128 -309v-994q0 -182 -128 -310q-129 -127 -309 -127q-182 0 -308 128.5t-126 308.5zM364 417q0 -33 12 -61.5t34 -49.5t50.5 -33.5t61.5 -12.5q32 0 61 12.5t50.5 33.5t33.5 49.5t12 61.5v998 q0 32 -12 61t-33.5 50.5t-50.5 33.5t-61 12q-33 0 -61.5 -12t-50.5 -33.5t-34 -50.5t-12 -61v-998zM1155 0v1824h782v-275h-507v-499h371v-276h-371v-499h507v-275h-782z" />
<glyph unicode="&#x2c6;" horiz-adv-x="776" d="M95 1601l226 511h134l227 -511h-189l-103 249l-103 -249h-192z" />
<glyph unicode="&#x2dc;" horiz-adv-x="503" d="M-445 287q117 156 257 155h11q33 -1 71.5 -11.5t80.5 -30.5l72 -39q35 -20 69 -37q16 -9 31.5 -11.5t29.5 -2.5q52 3 115 86l153 -114q-121 -160 -265 -160h-10q-86 3 -221 77q-97 54 -132 54q-48 0 -109 -80z" />
<glyph unicode="&#x2013;" horiz-adv-x="1024" d="M95 772v277h834v-277h-834z" />
<glyph unicode="&#x2014;" horiz-adv-x="2048" d="M95 772v277h1858v-277h-1858z" />
<glyph unicode="&#x2018;" horiz-adv-x="592" d="M95 2060h254l148 -418h-170z" />
<glyph unicode="&#x2019;" horiz-adv-x="443" d="M95 2112h254l-42 -416h-170z" />
<glyph unicode="&#x201c;" horiz-adv-x="769" d="M95 2112h254l-42 -416h-170zM420 2112h255l-42 -416h-170z" />
<glyph unicode="&#x201d;" horiz-adv-x="769" d="M95 2112h254l-42 -416h-170zM420 2112h255l-42 -416h-170z" />
<glyph unicode="&#x2026;" horiz-adv-x="1392" d="M95 -1v274h274v-274h-274zM559 -1v274h274v-274h-274zM1023 -1v274h274v-274h-274z" />
<glyph unicode="&#x2039;" horiz-adv-x="1101" d="M95 799v199l912 390v-232l-627 -259l627 -263v-230z" />
<glyph unicode="&#x203a;" horiz-adv-x="1101" d="M95 404v230l626 261l-626 261v232l912 -395v-199z" />
<glyph unicode="&#x2122;" horiz-adv-x="2512" d="M95 1548v275h858v-275h-291v-1548h-275v1548h-292zM1142 0v1824h394l256 -1308l246 1308h379v-1824h-274v1146l-239 -1146h-221l-266 1143v-1143h-275z" />
<glyph unicode="&#xe000;" horiz-adv-x="1825" d="M0 1825h1825v-1825h-1825v1825z" />
<glyph unicode="&#xfb01;" horiz-adv-x="1435" d="M95 0v1824h782v-275h-508v-499h371v-276h-371v-774h-274zM1066 0v1823h275v-1823h-275z" />
<glyph unicode="&#xfb02;" horiz-adv-x="1909" d="M95 0v1824h782v-275h-508v-499h371v-276h-371v-774h-274zM1066 0v1823h275v-1550h474v-273h-749z" />
<glyph unicode="&#xfb03;" horiz-adv-x="2407" d="M95 0v1824h782v-275h-508v-499h371v-276h-371v-774h-274zM1066 0v1824h783v-275h-508v-499h371v-276h-371v-774h-275zM2038 0v1823h275v-1823h-275z" />
<glyph unicode="&#xfb04;" horiz-adv-x="2881" d="M95 0v1824h782v-275h-508v-499h371v-276h-371v-774h-274zM1066 0v1824h783v-275h-508v-499h371v-276h-371v-774h-275zM2038 0v1823h275v-1550h474v-273h-749z" />
</font>
</defs>
</svg>
